<svg xmlns="http://www.w3.org/2000/svg" width="40" height="40" viewBox="0 0 40 40"><path d="M315-2556a20,20,0,0,1,20-20,20,20,0,0,1,20,20,20,20,0,0,1-20,20A20,20,0,0,1,315-2556Zm15.265-11.415a8.42,8.42,0,0,0-2.787.534,5.606,5.606,0,0,0-2.034,1.325,5.62,5.62,0,0,0-1.326,2.034,8.413,8.413,0,0,0-.533,2.787c-.057,1.225-.069,1.616-.069,4.735s.013,3.51.069,4.735a8.436,8.436,0,0,0,.534,2.787,5.644,5.644,0,0,0,1.325,2.035,5.616,5.616,0,0,0,2.034,1.324,8.413,8.413,0,0,0,2.787.534c1.225.057,1.616.069,4.736.069s3.51-.012,4.734-.069a8.419,8.419,0,0,0,2.788-.534,5.873,5.873,0,0,0,3.359-3.359,8.436,8.436,0,0,0,.534-2.787c.056-1.225.069-1.615.069-4.735s-.013-3.51-.069-4.735a8.433,8.433,0,0,0-.534-2.787,5.63,5.63,0,0,0-1.325-2.034,5.637,5.637,0,0,0-2.034-1.326,8.453,8.453,0,0,0-2.788-.533c-1.225-.056-1.616-.069-4.735-.069S331.49-2567.47,330.265-2567.415Zm.094,20.763a6.338,6.338,0,0,1-2.133-.4,3.567,3.567,0,0,1-1.32-.859,3.54,3.54,0,0,1-.859-1.32,6.351,6.351,0,0,1-.4-2.132c-.055-1.211-.067-1.575-.067-4.641s.012-3.429.067-4.64a6.344,6.344,0,0,1,.4-2.132,3.561,3.561,0,0,1,.859-1.321,3.549,3.549,0,0,1,1.321-.859,6.345,6.345,0,0,1,2.132-.4c1.211-.055,1.574-.067,4.64-.067s3.43.012,4.641.068a6.331,6.331,0,0,1,2.132.4,3.552,3.552,0,0,1,1.32.859,3.563,3.563,0,0,1,.859,1.321,6.35,6.35,0,0,1,.4,2.132c.055,1.211.067,1.574.067,4.64s-.012,3.43-.067,4.641a6.38,6.38,0,0,1-.4,2.132,3.8,3.8,0,0,1-2.18,2.18,6.338,6.338,0,0,1-2.133.4c-1.21.056-1.573.067-4.64.067S331.57-2546.6,330.359-2546.652ZM329.1-2556a5.9,5.9,0,0,0,5.9,5.9,5.9,5.9,0,0,0,5.9-5.9,5.9,5.9,0,0,0-5.9-5.9A5.9,5.9,0,0,0,329.1-2556Zm10.65-6.13a1.379,1.379,0,0,0,1.379,1.378,1.379,1.379,0,0,0,1.378-1.378,1.379,1.379,0,0,0-1.378-1.379A1.379,1.379,0,0,0,339.752-2562.13Zm-8.58,6.13a3.828,3.828,0,0,1,3.828-3.828,3.828,3.828,0,0,1,3.829,3.828,3.829,3.829,0,0,1-3.829,3.829A3.828,3.828,0,0,1,331.172-2556Z" transform="translate(-315 2576)" fill="#000358"/></svg>